<svg id="Layer_3" data-name="Layer 3" xmlns="http://www.w3.org/2000/svg" viewBox="0 0 333.07 333.07"><defs><style>.cls-1{fill:none;}.cls-2{fill:#4a95d1;}</style></defs><rect class="cls-1" width="333.07" height="333.07"/><path class="cls-2" d="M-178.78,259.08h34.08a15.53,15.53,0,0,1,15.53,15.53v20.25h0v17.46h-53.5c-.1,1.43-.21,2.89-.32,4.36-7.57,101.24-107.64,104.26-107.64,104.26V367.8c31.57-4,45.4-29.8,51.25-55.48H-276a14.65,14.65,0,0,1-14.65-14.65V259.08h54.79l-.16-1.65v-.18c2.33-136.91,163.64-109.88,163.64-109.88v49a6.85,6.85,0,0,1-6.82,6.85C-159.86,203.65-173.59,211.69-178.78,259.08Z" transform="translate(348.03 -116.54)"/><path class="cls-2" d="M-72.36,315.79v105a.15.15,0,0,1-.16.15h0a57.57,57.57,0,0,1-57.57-57.57V335.84a20.05,20.05,0,0,1,20-20Z" transform="translate(348.03 -116.54)"/><path class="cls-2" d="M220.45,142.77h28.82a26.4,26.4,0,0,1,26.4,26.4v26.4a0,0,0,0,1,0,0H246.52a26.4,26.4,0,0,1-26.4-26.4V143.09A.33.33,0,0,1,220.45,142.77Z"/></svg>